<?xml version="1.0" encoding="UTF-8" standalone="no"?>
<!-- Created with Inkscape (http://www.inkscape.org/) -->

<svg
   xmlns:dc="http://purl.org/dc/elements/1.1/"
   xmlns:cc="http://creativecommons.org/ns#"
   xmlns:rdf="http://www.w3.org/1999/02/22-rdf-syntax-ns#"
   xmlns:svg="http://www.w3.org/2000/svg"
   xmlns="http://www.w3.org/2000/svg"
   xmlns:sodipodi="http://sodipodi.sourceforge.net/DTD/sodipodi-0.dtd"
   xmlns:inkscape="http://www.inkscape.org/namespaces/inkscape"
   width="800"
   height="200"
   viewBox="0 0 800.00002 200"
   id="svg2"
   version="1.1"
   inkscape:version="0.91 r"
   sodipodi:docname="logo-long.svg">
  <defs
     id="defs4">
    <clipPath
       clipPathUnits="userSpaceOnUse"
       id="clipPath4153">
      <path
         style="fill:#000000;fill-opacity:1;fill-rule:evenodd;stroke:none;stroke-width:1px;stroke-linecap:butt;stroke-linejoin:miter;stroke-opacity:1"
         d="m 231.92471,255.85692 c 0,0 1.23112,7.82868 0.59978,10.19623 -0.63135,2.36754 11.33265,1.86247 11.33265,1.86247 l 2.49381,-44.76239 0.31758,-3.13478 0,-8.76608 -13.32329,-0.25254 z"
         id="path4155"
         inkscape:connector-curvature="0" />
    </clipPath>
    <clipPath
       clipPathUnits="userSpaceOnUse"
       id="clipPath4167">
      <g
         id="g4169"
         style="font-style:normal;font-weight:normal;font-size:74.05593109px;line-height:125%;font-family:sans-serif;letter-spacing:0px;word-spacing:0px;fill:#ff6600;fill-opacity:1;stroke:none;stroke-width:1px;stroke-linecap:butt;stroke-linejoin:miter;stroke-opacity:1">
        <path
           id="path4171"
           style="font-style:normal;font-variant:normal;font-weight:normal;font-stretch:normal;font-family:'Droid Sans';-inkscape-font-specification:'Droid Sans';fill:#ff6600"
           d="m 243.12277,212.35323 7.12355,0 8.28066,30.95307 q 0.54241,2.02496 1.04865,4.04993 0.5424,2.02497 0.97632,3.94145 0.47008,1.88033 0.79552,3.57985 0.3616,1.69953 0.57857,3.07362 0.14464,-1.37409 0.3616,-3.00129 0.21696,-1.62721 0.50624,-3.39906 0.28928,-1.808 0.61472,-3.65217 0.3616,-1.88033 0.75936,-3.65217 l 7.23203,-31.89323 7.19586,0 -13.27076,52.8661 -6.79811,0 -9.18467,-33.9182 q -0.50624,-1.84416 -0.97632,-3.79681 -0.47008,-1.95264 -0.86784,-3.65217 -0.43393,-1.98881 -0.83169,-3.86913 -0.39776,1.84416 -0.79552,3.83297 -0.3616,1.69953 -0.83168,3.72449 -0.43392,2.02497 -0.94017,3.97762 l -8.75074,33.70123 -6.79811,0 -13.95781,-52.8661 7.12355,0 8.06371,32.14635 q 0.43392,1.66337 0.79552,3.47137 0.3616,1.77185 0.65088,3.54369 0.32544,1.77185 0.57856,3.43522 0.25312,1.6272 0.43392,3.00129 0.18081,-1.33793 0.43393,-3.10978 0.28928,-1.77184 0.65088,-3.72449 0.3616,-1.95264 0.75936,-3.94145 0.43392,-2.02497 0.904,-3.79681 l 8.13603,-31.02539 z"
           inkscape:connector-curvature="0" />
      </g>
    </clipPath>
  </defs>
  <sodipodi:namedview
     id="base"
     pagecolor="#ffffff"
     bordercolor="#666666"
     borderopacity="1.0"
     inkscape:pageopacity="0.0"
     inkscape:pageshadow="2"
     inkscape:zoom="0.70710678"
     inkscape:cx="-103.83187"
     inkscape:cy="327.74171"
     inkscape:document-units="px"
     inkscape:current-layer="layer1"
     showgrid="false"
     units="px"
     inkscape:window-width="1920"
     inkscape:window-height="1054"
     inkscape:window-x="0"
     inkscape:window-y="0"
     inkscape:window-maximized="1" />
  <metadata
     id="metadata7">
    <rdf:RDF>
      <cc:Work
         rdf:about="">
        <dc:format>image/svg+xml</dc:format>
        <dc:type
           rdf:resource="http://purl.org/dc/dcmitype/StillImage" />
        <dc:title></dc:title>
      </cc:Work>
    </rdf:RDF>
  </metadata>
  <g
     inkscape:label="Layer 1"
     inkscape:groupmode="layer"
     id="layer1"
     transform="translate(0,-852.36216)">
    <g
       id="g4202"
       transform="matrix(4.276948,0,0,4.276948,-496.42012,-299.34058)">
      <text
         xml:space="preserve"
         style="font-style:normal;font-weight:normal;font-size:40px;line-height:125%;font-family:sans-serif;letter-spacing:0px;word-spacing:0px;fill:#ff6600;fill-opacity:1;stroke:none;stroke-width:1px;stroke-linecap:butt;stroke-linejoin:miter;stroke-opacity:1"
         x="202.25774"
         y="307.60199"
         id="text4194"
         sodipodi:linespacing="125%"><tspan
           sodipodi:role="line"
           id="tspan4196"
           x="202.25774"
           y="307.60199"
           style="font-style:normal;font-variant:normal;font-weight:normal;font-stretch:normal;font-family:'Droid Sans Mono';-inkscape-font-specification:'Droid Sans Mono';fill:#ff6600">Hack</tspan></text>
      <text
         sodipodi:linespacing="125%"
         id="text4198"
         y="302.73849"
         x="121.32178"
         style="font-style:normal;font-weight:normal;font-size:21.87074852px;line-height:125%;font-family:sans-serif;letter-spacing:0px;word-spacing:0px;fill:#808080;fill-opacity:1;stroke:none;stroke-width:1px;stroke-linecap:butt;stroke-linejoin:miter;stroke-opacity:1"
         xml:space="preserve"><tspan
           style="font-style:normal;font-variant:normal;font-weight:normal;font-stretch:normal;font-family:'Droid Sans Mono';-inkscape-font-specification:'Droid Sans Mono';fill:#808080"
           y="302.73849"
           x="121.32178"
           id="tspan4200"
           sodipodi:role="line">weekly</tspan></text>
    </g>
  </g>
</svg>
